{"title":"Surrogates BRRip.[Dual Audio][Eng-Hindi]","uid":5398950,"size":732916561,"categoryP":"video","categoryS":"hd___movies","magnet":"?xt=urn:btih:bcb3b076f18a48fb624cab108ecc4b5f55cd758d&amp;dn=Surrogates+BRRip.%5BDual+Audio%5D%5BEng-Hindi%5D&amp;tr=udp%3A%2F%2Ftracker.openbittorrent.com%3A80&amp;tr=udp%3A%2F%2Fopen.demonii.com%3A1337&amp;tr=udp%3A%2F%2Ftracker.coppersurfer.tk%3A6969&amp;tr=udp%3A%2F%2Fexodus.desync.com%3A6969","seeders":0,"leechers":1,"uploader":"boniin","files":-1,"time":1267350651,"description":"General :-\nFormat : AVI\nFormat/Info : Audio Video Interleave\nFormat profile : OpenDML\nFile size : 675 MiB\nDuration : 1h 28mn\nLanguage : Dual Audio\nOverall bit rate : 1 064 Kbps\nWriting application : AVI-Mux GUI 1.17.8.3, Feb 16 201019:42:50\nOriginal Source : 1080p BluRay\n\n-: Genre :-\nAction | Sci-Fi | Thriller\nSurrogates (2009)\n\nCode:\nFormat : MPEG-4 Visual\nFormat profile : Advanced Simple@L5\nFormat settings, BVOP : Yes\nFormat settings, QPel : No\nFormat settings, GMC : No warppoints\nFormat settings, Matrix : Default (H.263)\nCodec ID : XVID\nCodec ID/Hint : XviD\nDuration : 1h 28mn\nBit rate : 899 Kbps\nWidth : 720 pixels\nHeight :304 pixels\nDisplay aspect ratio : 2.35:1\nFrame rate : 23.976 fps\nResolution : 8 bits\nColorimetry : 4:2:0\nScan type : Progressive\nBits/(Pixel*Frame) : 0.171\nStream size : 570 MiB (84%)\nWriting library : XviD 1.2.1 (UTC 2008-12-04)\n\n\nAudio #1 : Hindi\n\nFormat : MPEG Audio\nFormat version : Version 1\nFormat profile : Layer 3\nMode : Joint stereo\nFormat_Settings_ModeExtension : MS Stereo\nCodec ID : 55\nCodec ID/Hint : MP3\nDuration : 1h 28mn\nBit rate mode : Constant\nBit rate : 96.0 Kbps\nChannel(s) : 2 channels\nSampling rate : 32.0 KHz\nStream size : 60.8 MiB (9%)\nAlignment : Aligned on interleaves\nInterleave, duration : 781 ms (18.73 video frames)\nInterleave, preload duration : 216 ms\n\nAudio #2 : English\n\nFormat : AC-3\nFormat/Info : Audio Coding 3\nCodec ID : 2000\nDuration : 1h 28mn\nBit rate mode : Constant\nBit rate : 64.0 Kbps\nChannel(s) : 2 channels\nChannel positions : L R\nSampling rate : 48.0 KHz\nStream size : 40.6 MiB (6%)\nAlignment : Aligned on interleaves\nInterleave, duration : 64 ms (1.53 video frames)\nInterleave, preload duration : 192 ms\n","torrent":{"xt":"urn:btih:bcb3b076f18a48fb624cab108ecc4b5f55cd758d","amp;dn":"Surrogates+BRRip.%5BDual+Audio%5D%5BEng-Hindi%5D","amp;tr":["udp%3A%2F%2Ftracker.openbittorrent.com%3A80","udp%3A%2F%2Fopen.demonii.com%3A1337","udp%3A%2F%2Ftracker.coppersurfer.tk%3A6969","udp%3A%2F%2Fexodus.desync.com%3A6969"],"infoHash":"bcb3b076f18a48fb624cab108ecc4b5f55cd758d","infoHashBuffer":{"type":"Buffer","data":[188,179,176,118,241,138,72,251,98,76,171,16,142,204,75,95,85,205,117,141]},"announce":[],"urlList":[]}}